<mxfile host="65bd71144e">
    <diagram id="t0vypp38Wu2VyRcgZFb7" name="Page-1">
        <mxGraphModel dx="909" dy="565" grid="1" gridSize="11" guides="1" tooltips="1" connect="1" arrows="1" fold="1" page="1" pageScale="1" pageWidth="850" pageHeight="1100" background="#FFFCFC" math="0" shadow="1">
            <root>
                <mxCell id="0"/>
                <mxCell id="1" parent="0"/>
                <mxCell id="2" value="&lt;b&gt;users&lt;/b&gt;" style="swimlane;fontStyle=4;childLayout=stackLayout;horizontal=1;startSize=30;horizontalStack=0;resizeParent=1;resizeParentMax=0;resizeLast=0;collapsible=1;marginBottom=0;html=1;hachureGap=4;fontFamily=Lucida Console;fontSize=16;rounded=0;sketch=1;curveFitting=1;jiggle=2;fillColor=#e3c800;fontColor=#000000;strokeColor=#B09500;labelBackgroundColor=none;align=center;" parent="1" vertex="1">
                    <mxGeometry x="110" y="110" width="140" height="120" as="geometry"/>
                </mxCell>
                <mxCell id="3" value="id" style="text;align=center;verticalAlign=middle;spacingLeft=4;spacingRight=4;overflow=hidden;points=[[0,0.5],[1,0.5]];portConstraint=eastwest;rotatable=0;html=1;fontSize=16;hachureGap=4;fontFamily=Lucida Console;rounded=0;sketch=1;curveFitting=1;jiggle=2;fillColor=#fa6800;strokeColor=#C73500;fontStyle=1;labelBackgroundColor=none;horizontal=1;fontColor=#000000;" parent="2" vertex="1">
                    <mxGeometry y="30" width="140" height="30" as="geometry"/>
                </mxCell>
                <mxCell id="4" value="name" style="text;align=center;verticalAlign=middle;spacingLeft=4;spacingRight=4;overflow=hidden;points=[[0,0.5],[1,0.5]];portConstraint=eastwest;rotatable=0;html=1;fontSize=16;hachureGap=4;fontFamily=Lucida Console;rounded=0;sketch=1;curveFitting=1;jiggle=2;fillColor=#fa6800;fontColor=#000000;strokeColor=#C73500;fontStyle=0;labelBackgroundColor=none;horizontal=1;" parent="2" vertex="1">
                    <mxGeometry y="60" width="140" height="20" as="geometry"/>
                </mxCell>
                <mxCell id="5" value="email&lt;br style=&quot;font-size: 16px;&quot;&gt;" style="text;align=center;verticalAlign=middle;spacingLeft=4;spacingRight=4;overflow=hidden;points=[[0,0.5],[1,0.5]];portConstraint=eastwest;rotatable=0;html=1;fontSize=16;hachureGap=4;fontFamily=Lucida Console;rounded=0;sketch=1;curveFitting=1;jiggle=2;fillColor=#fa6800;fontColor=#000000;strokeColor=#C73500;fontStyle=0;labelBackgroundColor=none;horizontal=1;" parent="2" vertex="1">
                    <mxGeometry y="80" width="140" height="20" as="geometry"/>
                </mxCell>
                <mxCell id="67" value="phone number" style="text;align=center;verticalAlign=middle;spacingLeft=4;spacingRight=4;overflow=hidden;points=[[0,0.5],[1,0.5]];portConstraint=eastwest;rotatable=0;html=1;fontSize=16;hachureGap=4;fontFamily=Lucida Console;rounded=0;sketch=1;curveFitting=1;jiggle=2;fillColor=#fa6800;fontColor=#000000;strokeColor=#C73500;fontStyle=0;labelBackgroundColor=none;horizontal=1;" vertex="1" parent="2">
                    <mxGeometry y="100" width="140" height="20" as="geometry"/>
                </mxCell>
                <mxCell id="8" value="&lt;b&gt;items&lt;/b&gt;" style="swimlane;fontStyle=4;childLayout=stackLayout;horizontal=1;startSize=26;fillColor=#e3c800;horizontalStack=0;resizeParent=1;resizeParentMax=0;resizeLast=0;collapsible=1;marginBottom=0;html=1;hachureGap=4;fontFamily=Lucida Console;fontSize=16;rounded=0;sketch=1;curveFitting=1;jiggle=2;strokeColor=#B09500;labelBackgroundColor=none;align=center;fontColor=#000000;" parent="1" vertex="1">
                    <mxGeometry x="319" y="272" width="140" height="286" as="geometry"/>
                </mxCell>
                <mxCell id="9" value="id" style="text;align=center;verticalAlign=top;spacingLeft=4;spacingRight=4;overflow=hidden;rotatable=0;points=[[0,0.5],[1,0.5]];portConstraint=eastwest;html=1;hachureGap=4;fontFamily=Lucida Console;fontSize=16;rounded=0;sketch=1;curveFitting=1;jiggle=2;fillColor=#fa6800;strokeColor=#C73500;fontStyle=5;labelBackgroundColor=none;horizontal=1;fontColor=#000000;" parent="8" vertex="1">
                    <mxGeometry y="26" width="140" height="26" as="geometry"/>
                </mxCell>
                <mxCell id="10" value="title" style="text;align=center;verticalAlign=top;spacingLeft=4;spacingRight=4;overflow=hidden;rotatable=0;points=[[0,0.5],[1,0.5]];portConstraint=eastwest;html=1;hachureGap=4;fontFamily=Lucida Console;fontSize=16;rounded=0;sketch=1;curveFitting=1;jiggle=2;fillColor=#fa6800;strokeColor=#C73500;fontStyle=0;labelBackgroundColor=none;horizontal=1;fontColor=#000000;" parent="8" vertex="1">
                    <mxGeometry y="52" width="140" height="26" as="geometry"/>
                </mxCell>
                <mxCell id="11" value="description" style="text;align=center;verticalAlign=top;spacingLeft=4;spacingRight=4;overflow=hidden;rotatable=0;points=[[0,0.5],[1,0.5]];portConstraint=eastwest;html=1;hachureGap=4;fontFamily=Lucida Console;fontSize=16;rounded=0;sketch=1;curveFitting=1;jiggle=2;fillColor=#fa6800;strokeColor=#C73500;fontStyle=0;labelBackgroundColor=none;horizontal=1;fontColor=#000000;" parent="8" vertex="1">
                    <mxGeometry y="78" width="140" height="26" as="geometry"/>
                </mxCell>
                <mxCell id="15" value="price" style="text;align=center;verticalAlign=top;spacingLeft=4;spacingRight=4;overflow=hidden;rotatable=0;points=[[0,0.5],[1,0.5]];portConstraint=eastwest;html=1;hachureGap=4;fontFamily=Lucida Console;fontSize=16;rounded=0;sketch=1;curveFitting=1;jiggle=2;fillColor=#fa6800;strokeColor=#C73500;fontStyle=0;labelBackgroundColor=none;horizontal=1;fontColor=#000000;" parent="8" vertex="1">
                    <mxGeometry y="104" width="140" height="26" as="geometry"/>
                </mxCell>
                <mxCell id="16" value="status" style="text;align=center;verticalAlign=top;spacingLeft=4;spacingRight=4;overflow=hidden;rotatable=0;points=[[0,0.5],[1,0.5]];portConstraint=eastwest;html=1;hachureGap=4;fontFamily=Lucida Console;fontSize=16;rounded=0;sketch=1;curveFitting=1;jiggle=2;fillColor=#fa6800;strokeColor=#C73500;fontStyle=0;labelBackgroundColor=none;horizontal=1;fontColor=#000000;" parent="8" vertex="1">
                    <mxGeometry y="130" width="140" height="26" as="geometry"/>
                </mxCell>
                <mxCell id="17" value="created_at" style="text;align=center;verticalAlign=top;spacingLeft=4;spacingRight=4;overflow=hidden;rotatable=0;points=[[0,0.5],[1,0.5]];portConstraint=eastwest;html=1;hachureGap=4;fontFamily=Lucida Console;fontSize=16;rounded=0;sketch=1;curveFitting=1;jiggle=2;fillColor=#fa6800;strokeColor=#C73500;fontStyle=0;labelBackgroundColor=none;horizontal=1;fontColor=#000000;" parent="8" vertex="1">
                    <mxGeometry y="156" width="140" height="26" as="geometry"/>
                </mxCell>
                <mxCell id="19" value="seller_id&lt;br style=&quot;font-size: 16px;&quot;&gt;" style="text;strokeColor=#005700;fillColor=#008a00;align=center;verticalAlign=top;spacingLeft=4;spacingRight=4;overflow=hidden;rotatable=0;points=[[0,0.5],[1,0.5]];portConstraint=eastwest;html=1;hachureGap=4;fontFamily=Lucida Console;fontSize=16;rounded=0;sketch=1;curveFitting=1;jiggle=2;fontStyle=0;labelBackgroundColor=none;horizontal=1;fontColor=#000066;" parent="8" vertex="1">
                    <mxGeometry y="182" width="140" height="26" as="geometry"/>
                </mxCell>
                <mxCell id="49" value="Size" style="text;align=center;verticalAlign=top;spacingLeft=4;spacingRight=4;overflow=hidden;rotatable=0;points=[[0,0.5],[1,0.5]];portConstraint=eastwest;html=1;hachureGap=4;fontFamily=Lucida Console;fontSize=16;rounded=0;sketch=1;curveFitting=1;jiggle=2;fillColor=#fa6800;strokeColor=#C73500;fontStyle=0;labelBackgroundColor=none;horizontal=1;fontColor=#000000;" parent="8" vertex="1">
                    <mxGeometry y="208" width="140" height="26" as="geometry"/>
                </mxCell>
                <mxCell id="50" value="Type" style="text;align=center;verticalAlign=top;spacingLeft=4;spacingRight=4;overflow=hidden;rotatable=0;points=[[0,0.5],[1,0.5]];portConstraint=eastwest;html=1;hachureGap=4;fontFamily=Lucida Console;fontSize=16;rounded=0;sketch=1;curveFitting=1;jiggle=2;fillColor=#fa6800;strokeColor=#C73500;fontStyle=0;labelBackgroundColor=none;horizontal=1;fontColor=#000000;" parent="8" vertex="1">
                    <mxGeometry y="234" width="140" height="26" as="geometry"/>
                </mxCell>
                <mxCell id="51" value="Condition" style="text;align=center;verticalAlign=top;spacingLeft=4;spacingRight=4;overflow=hidden;rotatable=0;points=[[0,0.5],[1,0.5]];portConstraint=eastwest;html=1;hachureGap=4;fontFamily=Lucida Console;fontSize=16;rounded=0;sketch=1;curveFitting=1;jiggle=2;fillColor=#fa6800;strokeColor=#C73500;fontStyle=0;labelBackgroundColor=none;horizontal=1;fontColor=#000000;" parent="8" vertex="1">
                    <mxGeometry y="260" width="140" height="26" as="geometry"/>
                </mxCell>
                <mxCell id="20" value="&lt;b&gt;wishlist&lt;/b&gt;" style="swimlane;fontStyle=4;childLayout=stackLayout;horizontal=1;startSize=26;horizontalStack=0;resizeParent=1;resizeParentMax=0;resizeLast=0;collapsible=1;marginBottom=0;html=1;hachureGap=4;fontFamily=Lucida Console;fontSize=16;rounded=0;sketch=1;curveFitting=1;jiggle=2;fillColor=#e3c800;strokeColor=#B09500;labelBackgroundColor=none;align=center;fontColor=#000000;" parent="1" vertex="1">
                    <mxGeometry x="70" y="272" width="140" height="104" as="geometry"/>
                </mxCell>
                <mxCell id="21" value="id" style="text;align=center;verticalAlign=top;spacingLeft=4;spacingRight=4;overflow=hidden;rotatable=0;points=[[0,0.5],[1,0.5]];portConstraint=eastwest;html=1;hachureGap=4;fontFamily=Lucida Console;fontSize=16;rounded=0;sketch=1;curveFitting=1;jiggle=2;fillColor=#fa6800;strokeColor=#C73500;fontStyle=5;labelBackgroundColor=none;horizontal=1;fontColor=#000000;" parent="20" vertex="1">
                    <mxGeometry y="26" width="140" height="26" as="geometry"/>
                </mxCell>
                <mxCell id="22" value="user_id" style="text;align=center;verticalAlign=top;spacingLeft=4;spacingRight=4;overflow=hidden;rotatable=0;points=[[0,0.5],[1,0.5]];portConstraint=eastwest;html=1;hachureGap=4;fontFamily=Lucida Console;fontSize=16;rounded=0;sketch=1;curveFitting=1;jiggle=2;fillColor=#008a00;strokeColor=#005700;fontStyle=0;labelBackgroundColor=none;horizontal=1;fontColor=#4326ab;" parent="20" vertex="1">
                    <mxGeometry y="52" width="140" height="26" as="geometry"/>
                </mxCell>
                <mxCell id="66" value="item_id" style="text;align=center;verticalAlign=top;spacingLeft=4;spacingRight=4;overflow=hidden;rotatable=0;points=[[0,0.5],[1,0.5]];portConstraint=eastwest;html=1;hachureGap=4;fontFamily=Lucida Console;fontSize=16;rounded=0;sketch=1;curveFitting=1;jiggle=2;fillColor=#008a00;strokeColor=#005700;fontStyle=0;labelBackgroundColor=none;horizontal=1;fontColor=#4326ab;" vertex="1" parent="20">
                    <mxGeometry y="78" width="140" height="26" as="geometry"/>
                </mxCell>
                <mxCell id="45" style="edgeStyle=orthogonalEdgeStyle;hachureGap=4;html=1;exitX=0;exitY=0.5;exitDx=0;exitDy=0;entryX=0;entryY=0.5;entryDx=0;entryDy=0;fontFamily=Lucida Console;fontSize=16;sketch=1;curveFitting=1;jiggle=2;rounded=0;fillColor=#fa6800;strokeColor=#C73500;fontStyle=0;labelBackgroundColor=none;align=center;horizontal=1;endArrow=ERone;endFill=0;" parent="1" source="3" target="22" edge="1">
                    <mxGeometry relative="1" as="geometry"/>
                </mxCell>
                <mxCell id="47" style="edgeStyle=orthogonalEdgeStyle;hachureGap=4;html=1;entryX=0;entryY=0.5;entryDx=0;entryDy=0;fontFamily=Architects Daughter;fontSource=https%3A%2F%2Ffonts.googleapis.com%2Fcss%3Ffamily%3DArchitects%2BDaughter;fontSize=16;sketch=1;curveFitting=1;jiggle=2;rounded=0;fillColor=#e51400;strokeColor=#B20000;endArrow=ERoneToMany;endFill=0;" parent="1" source="3" target="19" edge="1">
                    <mxGeometry relative="1" as="geometry">
                        <Array as="points">
                            <mxPoint x="40" y="155"/>
                            <mxPoint x="40" y="473"/>
                            <mxPoint x="319" y="473"/>
                        </Array>
                    </mxGeometry>
                </mxCell>
                <mxCell id="52" value="&lt;b&gt;photo&lt;/b&gt;" style="swimlane;fontStyle=4;childLayout=stackLayout;horizontal=1;startSize=26;horizontalStack=0;resizeParent=1;resizeParentMax=0;resizeLast=0;collapsible=1;marginBottom=0;html=1;hachureGap=4;fontFamily=Lucida Console;fontSize=16;rounded=0;sketch=1;curveFitting=1;jiggle=2;fillColor=#e3c800;strokeColor=#B09500;labelBackgroundColor=none;align=center;fontColor=#000000;" parent="1" vertex="1">
                    <mxGeometry x="297" y="118" width="140" height="104" as="geometry"/>
                </mxCell>
                <mxCell id="53" value="id" style="text;align=center;verticalAlign=top;spacingLeft=4;spacingRight=4;overflow=hidden;rotatable=0;points=[[0,0.5],[1,0.5]];portConstraint=eastwest;html=1;hachureGap=4;fontFamily=Lucida Console;fontSize=16;rounded=0;sketch=1;curveFitting=1;jiggle=2;fillColor=#fa6800;strokeColor=#C73500;fontStyle=1;labelBackgroundColor=none;horizontal=1;fontColor=#000000;" parent="52" vertex="1">
                    <mxGeometry y="26" width="140" height="26" as="geometry"/>
                </mxCell>
                <mxCell id="55" value="item_id" style="text;align=center;verticalAlign=top;spacingLeft=4;spacingRight=4;overflow=hidden;rotatable=0;points=[[0,0.5],[1,0.5]];portConstraint=eastwest;html=1;hachureGap=4;fontFamily=Lucida Console;fontSize=16;rounded=0;sketch=1;curveFitting=1;jiggle=2;fillColor=#008a00;strokeColor=#005700;fontStyle=0;labelBackgroundColor=none;horizontal=1;fontColor=#1840dc;" parent="52" vertex="1">
                    <mxGeometry y="52" width="140" height="26" as="geometry"/>
                </mxCell>
                <mxCell id="56" value="url&lt;br&gt;" style="text;align=center;verticalAlign=top;spacingLeft=4;spacingRight=4;overflow=hidden;rotatable=0;points=[[0,0.5],[1,0.5]];portConstraint=eastwest;html=1;hachureGap=4;fontFamily=Lucida Console;fontSize=16;rounded=0;sketch=1;curveFitting=1;jiggle=2;fillColor=#fa6800;strokeColor=#C73500;fontStyle=0;labelBackgroundColor=none;horizontal=1;fontColor=#000000;" parent="52" vertex="1">
                    <mxGeometry y="78" width="140" height="26" as="geometry"/>
                </mxCell>
                <mxCell id="61" style="edgeStyle=none;sketch=1;hachureGap=4;jiggle=2;curveFitting=1;html=1;labelBackgroundColor=none;fontFamily=Lucida Console;fontSize=16;endArrow=ERoneToMany;endFill=0;" parent="1" source="22" edge="1">
                    <mxGeometry relative="1" as="geometry">
                        <mxPoint x="70" y="325" as="targetPoint"/>
                    </mxGeometry>
                </mxCell>
                <mxCell id="62" style="edgeStyle=orthogonalEdgeStyle;sketch=1;hachureGap=4;jiggle=2;curveFitting=1;html=1;exitX=1;exitY=0.5;exitDx=0;exitDy=0;entryX=0;entryY=0.5;entryDx=0;entryDy=0;labelBackgroundColor=none;fontFamily=Lucida Console;fontSize=16;endArrow=ERoneToMany;endFill=0;fillColor=#e51400;strokeColor=#B20000;" parent="1" source="66" target="9" edge="1">
                    <mxGeometry relative="1" as="geometry">
                        <mxPoint x="280" y="311" as="targetPoint"/>
                        <Array as="points">
                            <mxPoint x="280" y="363"/>
                            <mxPoint x="280" y="311"/>
                        </Array>
                    </mxGeometry>
                </mxCell>
                <mxCell id="68" style="edgeStyle=none;sketch=1;hachureGap=4;jiggle=2;curveFitting=1;html=1;exitX=1;exitY=0.5;exitDx=0;exitDy=0;entryX=1;entryY=0.5;entryDx=0;entryDy=0;fontFamily=Architects Daughter;fontSource=https%3A%2F%2Ffonts.googleapis.com%2Fcss%3Ffamily%3DArchitects%2BDaughter;fontSize=16;fillColor=#a20025;strokeColor=#6F0000;" edge="1" parent="1" source="9" target="55">
                    <mxGeometry relative="1" as="geometry">
                        <Array as="points">
                            <mxPoint x="484" y="308"/>
                            <mxPoint x="484" y="183"/>
                        </Array>
                    </mxGeometry>
                </mxCell>
            </root>
        </mxGraphModel>
    </diagram>
</mxfile>